<svg width="420" height="260" viewBox="0 0 420 260" fill="none" xmlns="http://www.w3.org/2000/svg">
  <defs>
    <linearGradient id="gold" x1="0" y1="0" x2="1" y2="1">
      <stop offset="0%" stop-color="#f9d423"></stop>
      <stop offset="60%" stop-color="#fff9e2"></stop>
      <stop offset="100%" stop-color="#ad8628"></stop>
    </linearGradient>
    <linearGradient id="bg" x1="0" y1="0" x2="1" y2="1">
      <stop offset="0%" stop-color="#23242a"></stop>
      <stop offset="100%" stop-color="#111016"></stop>
    </linearGradient>
  </defs>
  <!-- 背景 -->
  <rect width="420" height="260" fill="url(#bg)"></rect>
  <!-- 黄金長方形 -->
  <rect x="30" y="30" width="260" height="160" stroke="url(#gold)" stroke-width="5" fill="none"></rect>
  <!-- 1st square -->
  <rect x="30" y="30" width="160" height="160" stroke="url(#gold)" stroke-width="3" fill="none"></rect>
  <!-- 2nd square -->
  <rect x="190" y="30" width="70" height="70" stroke="url(#gold)" stroke-width="2" fill="none"></rect>
  <!-- 3rd square -->
  <rect x="190" y="100" width="43" height="43" stroke="url(#gold)" stroke-width="1.5" fill="none"></rect>
  <!-- 4th square -->
  <rect x="233" y="100" width="27" height="27" stroke="url(#gold)" stroke-width="1.2" fill="none"></rect>
  <!-- 5th square -->
  <rect x="233" y="127" width="16" height="16" stroke="url(#gold)" stroke-width="1" fill="none"></rect>
  <!-- 6th square -->
  <rect x="249" y="127" width="11" height="11" stroke="url(#gold)" stroke-width="0.9" fill="none"></rect>
  <!-- 黄金螺旋（フィボナッチカーブ近似） -->
  <path d="M190 190
      Q190 100 110 100
      Q30 100 30 30
      " stroke="url(#gold)" stroke-width="4" fill="none"></path>
  <path d="M190 100
      Q190 30 260 30
      " stroke="url(#gold)" stroke-width="2.5" fill="none"></path>
  <path d="M233 100
      Q260 100 260 127
      " stroke="url(#gold)" stroke-width="2" fill="none"></path>
  <path d="M233 127
      Q233 143 249 143
      " stroke="url(#gold)" stroke-width="1.5" fill="none"></path>
  <path d="M249 127
      Q260 127 260 138
      " stroke="url(#gold)" stroke-width="1" fill="none"></path>
  <!-- 光沢 -->
  <ellipse cx="120" cy="60" rx="60" ry="18" fill="#fff9e255"></ellipse>
</svg>
